<?xml version="1.0" encoding="UTF-8" standalone="no"?>
<!-- Generator: Adobe Illustrator 15.1.0, SVG Export Plug-In . SVG Version: 6.00 Build 0)  -->

<svg
   xmlns:dc="http://purl.org/dc/elements/1.1/"
   xmlns:cc="http://creativecommons.org/ns#"
   xmlns:rdf="http://www.w3.org/1999/02/22-rdf-syntax-ns#"
   xmlns:svg="http://www.w3.org/2000/svg"
   xmlns="http://www.w3.org/2000/svg"
   xmlns:xlink="http://www.w3.org/1999/xlink"
   xmlns:sodipodi="http://sodipodi.sourceforge.net/DTD/sodipodi-0.dtd"
   xmlns:inkscape="http://www.inkscape.org/namespaces/inkscape"
   version="1.1"
   x="0px"
   y="0px"
   width="770"
   height="750"
   viewBox="0 0 770 750"
   enable-background="new 0 0 622 452"
   xml:space="preserve"
   id="svg4593"
   inkscape:version="0.92.4 (f8dce91, 2019-08-02)"
   sodipodi:docname="github-collaboration.svg"><metadata
   id="metadata4778"><rdf:RDF><cc:Work
       rdf:about=""><dc:format>image/svg+xml</dc:format><dc:type
         rdf:resource="http://purl.org/dc/dcmitype/StillImage" /><dc:title /></cc:Work></rdf:RDF></metadata><defs
   id="defs4776"><linearGradient
   y2="363.47269"
   x2="480.35739"
   y1="334.8721"
   x1="480.35739"
   gradientUnits="userSpaceOnUse"
   id="SVGID_1_"
   gradientTransform="translate(279.43586,-47.971822)"><stop
     id="stop4613"
     style="stop-color:#C4C4C4"
     offset="0.0982" /><stop
     id="stop4615"
     style="stop-color:#686868"
     offset="0.5326" /><stop
     id="stop4617"
     style="stop-color:#000000"
     offset="1" /></linearGradient><linearGradient
   inkscape:collect="always"
   xlink:href="#SVGID_3_"
   id="linearGradient5073"
   gradientUnits="userSpaceOnUse"
   x1="537.17682"
   y1="57.660198"
   x2="537.17682"
   y2="112.9126" /><linearGradient
   inkscape:collect="always"
   xlink:href="#SVGID_3_"
   id="linearGradient5457"
   gradientUnits="userSpaceOnUse"
   x1="537.17682"
   y1="57.660198"
   x2="537.17682"
   y2="112.9126" /><linearGradient
   inkscape:collect="always"
   xlink:href="#SVGID_2_"
   id="linearGradient10592"
   gradientUnits="userSpaceOnUse"
   x1="303.49899"
   y1="123.9863"
   x2="303.49899"
   y2="179.23489" /><linearGradient
   inkscape:collect="always"
   xlink:href="#SVGID_3_"
   id="linearGradient10594"
   gradientUnits="userSpaceOnUse"
   x1="537.17682"
   y1="57.660198"
   x2="537.17682"
   y2="112.9126" /><linearGradient
   inkscape:collect="always"
   xlink:href="#SVGID_2_"
   id="linearGradient10905"
   gradientUnits="userSpaceOnUse"
   x1="303.49899"
   y1="123.9863"
   x2="303.49899"
   y2="179.23489" />






</defs><sodipodi:namedview
   pagecolor="#ffffff"
   bordercolor="#666666"
   borderopacity="1"
   objecttolerance="10"
   gridtolerance="10"
   guidetolerance="10"
   inkscape:pageopacity="0"
   inkscape:pageshadow="2"
   inkscape:window-width="1853"
   inkscape:window-height="1025"
   id="namedview4774"
   showgrid="false"
   showguides="true"
   fit-margin-top="0"
   fit-margin-left="0"
   fit-margin-right="0"
   fit-margin-bottom="0"
   inkscape:zoom="0.83382282"
   inkscape:cx="261.76192"
   inkscape:cy="375.41476"
   inkscape:window-x="67"
   inkscape:window-y="27"
   inkscape:window-maximized="1"
   inkscape:current-layer="svg4593" /><text
   xml:space="preserve"
   style="font-style:normal;font-variant:normal;font-weight:normal;font-stretch:normal;line-height:0%;font-family:monospace;-inkscape-font-specification:Monospace;text-align:start;letter-spacing:0px;word-spacing:0px;writing-mode:lr-tb;text-anchor:start;fill:#000000;fill-opacity:1;stroke:none;stroke-width:1px;stroke-linecap:butt;stroke-linejoin:miter;stroke-opacity:1"
   x="646.69189"
   y="35.840919"
   id="text4930"><tspan
     sodipodi:role="line"
     id="tspan4932"
     x="646.69189"
     y="35.840919"
     style="font-size:12px;line-height:1.25;font-family:monospace"> </tspan></text>

<rect
   style="fill:#ffffff;stroke:#000000;stroke-width:1.05247271;stroke-miterlimit:10"
   id="rect4596"
   height="243.93852"
   width="668.98041"
   stroke-miterlimit="10"
   y="2.0307393"
   x="90.548981" /><path
   stroke-miterlimit="10"
   d="m 743.63519,53.014987 c 0,-8.282513 -8.39225,-14.997307 -18.74384,-14.997307 H 243.79936 c -10.35159,0 -18.74384,6.714794 -18.74384,14.997307 V 219.98501 c 0,8.28252 8.39225,14.99731 18.74384,14.99731 h 481.09199 c 10.35159,0 18.74384,-6.71479 18.74384,-14.99731 z"
   id="path4656"
   inkscape:connector-curvature="0"
   style="fill:#b5b5b5;stroke:#ffffff;stroke-width:1.11775005;stroke-miterlimit:10" /><rect
   x="269.02023"
   y="49"
   width="425"
   height="70.268997"
   id="rect4658"
   style="fill:none" /><text
   id="text4660"
   style="line-height:0%"
   x="233.02023"
   y="61.419899"><tspan
     x="233.02023"
     y="61.419899"
     font-size="18"
     id="tspan4662"
     style="font-size:18px;font-family:Consolas">.git</tspan><tspan
     x="233.02023"
     y="83.019897"
     font-size="10.8"
     id="tspan4664"
     style="font-size:10.80000019px;font-family:Consolas">origin https://github.com/AnthonyOfSeattle/gapminder-analysis.git</tspan></text>
<rect
   style="fill:none"
   id="rect4666"
   height="24.448999"
   width="195.58501"
   y="9"
   x="88.020233" /><text
   style="font-size:13.5px;line-height:0%;font-family:Helvetica"
   id="text4668"
   font-size="13.5"
   x="102.02023"
   y="18.707001">~/gapminder-analysis</text>
<g
   id="Layer_1"
   transform="translate(76.02023,-10)"><g
     id="g4721"><rect
       x="24"
       y="85"
       width="100"
       height="128"
       id="rect4723"
       style="fill:#dcdee0" /><rect
       x="24"
       y="85"
       width="100"
       height="128"
       id="rect4725"
       style="fill:none;stroke:#85888d;stroke-width:2" /><line
       x1="37"
       y1="105"
       x2="111"
       y2="105"
       id="line4727"
       style="fill:none;stroke:#000000;stroke-width:2" /><line
       x1="37"
       y1="111"
       x2="111"
       y2="111"
       id="line4729"
       style="fill:none;stroke:#000000;stroke-width:2" /><line
       x1="37"
       y1="117"
       x2="111"
       y2="117"
       id="line4731"
       style="fill:none;stroke:#000000;stroke-width:2" /><line
       x1="37"
       y1="129"
       x2="111"
       y2="129"
       id="line4733"
       style="fill:none;stroke:#70bf41;stroke-width:2" /></g></g><rect
   style="fill:none"
   id="rect4742"
   height="14"
   width="52.743"
   y="136.069"
   x="236.02023" /><g
   id="g5114"
   transform="translate(58.02023,-10)"><g
   id="g4736"><rect
     x="150.871"
     y="136.76801"
     width="45.956001"
     height="30.604"
     id="rect4738"
     style="fill:#45beee" /><polygon
     points="234.02,151.163 193.467,121.571 193.467,181.695 "
     id="polygon4740"
     style="fill:#45beee" /></g><text
   y="154.34959"
   x="164"
   font-size="12"
   id="text4744"
   style="font-size:12px;line-height:0%;font-family:Consolas">git add</text>

</g><rect
   style="fill:none"
   id="rect4752"
   height="14"
   width="85.542"
   y="136.069"
   x="449.00024" /><g
   id="g5108"
   transform="translate(104.02023,-10)"><g
   id="g4746"><rect
     x="381.25101"
     y="136.76801"
     width="45.956001"
     height="30.604"
     id="rect4748"
     style="fill:#45beee" /><polygon
     points="423.847,121.571 423.847,181.695 464.399,151.163 "
     id="polygon4750"
     style="fill:#45beee" /></g><text
   y="154.34959"
   x="386.7637"
   font-size="12"
   id="text4754"
   style="font-size:12px;line-height:0%;font-family:Consolas">git commit</text>

</g><rect
   style="fill:none"
   id="rect4766"
   height="17"
   width="147"
   y="196"
   x="301.02023" /><g
   id="g5093"
   transform="translate(80.02023,-10)"><g
   id="Layer_3"><g
     id="g4671"><linearGradient
       y2="179.23489"
       x2="303.49899"
       y1="123.9863"
       x1="303.49899"
       gradientUnits="userSpaceOnUse"
       id="SVGID_2_"><stop
         id="stop4674"
         style="stop-color:#C4C4C4"
         offset="0.0982" /><stop
         id="stop4676"
         style="stop-color:#686868"
         offset="0.5326" /><stop
         id="stop4678"
         style="stop-color:#000000"
         offset="1" /></linearGradient><path
       id="path4680"
       d="m 253.453,178.205 c 0,-9.264 22.404,-16.777 50.047,-16.777 27.643,0 50.045,7.514 50.045,16.777 v 1.029 c 0,0 0,-2.115 0,-3.117 0,-1.007 0,-35.745 0,-35.745 v 0.394 c 0,-9.27 -22.402,-16.78 -50.045,-16.78 -27.643,0 -50.047,7.51 -50.047,16.78 v -0.394 c 0,0 0,34.519 0,35.733 0,1.205 0,3.129 0,3.129 z"
       stroke-miterlimit="10"
       inkscape:connector-curvature="0"
       style="fill:url(#linearGradient10905);stroke:#231f20;stroke-miterlimit:10" /><g
       id="g4682"><path
         id="path4684"
         d="m 353.545,140.373 c 0,0 0,34.738 0,35.745 0,1.002 0.355,3.117 0.355,3.117 0,9.27 -22.758,16.779 -50.4,16.779 -27.642,0 -50.4,-7.51 -50.4,-16.779 0,0 0.354,-1.924 0.354,-3.129 0,-1.214 0,-35.733 0,-35.733 0,9.274 22.404,16.785 50.047,16.785 27.643,0 50.044,-7.511 50.044,-16.785 z"
         stroke-miterlimit="10"
         inkscape:connector-curvature="0"
         style="fill:#ffffff;stroke:#231f20;stroke-miterlimit:10" /></g></g><g
     id="g4686"><polygon
       id="polygon4688"
       points="282.411,134.965 269.235,149.459 328.542,149.459 341.719,134.965 "
       stroke-miterlimit="10"
       style="fill:#ffffff;stroke:#000000;stroke-miterlimit:10" /><line
       id="line4690"
       y2="140.894"
       x2="331.16501"
       y1="140.894"
       x1="282.41101"
       style="fill:none;stroke:#70bf41;stroke-width:2" /></g></g><text
   y="214.6279"
   x="269.47659"
   font-size="12"
   id="text4768"
   style="font-size:12px;line-height:0%;font-family:Helvetica">staging area</text>

</g><rect
   style="fill:none"
   id="rect4770"
   height="17"
   width="147"
   y="209"
   x="536.80524" /><g
   id="g5075"
   transform="translate(134.02023,-10)"><g
   id="Layer_4"><linearGradient
     y2="112.9126"
     x2="537.17682"
     y1="57.660198"
     x1="537.17682"
     gradientUnits="userSpaceOnUse"
     id="SVGID_3_"><stop
       id="stop4694"
       style="stop-color:#C4C4C4"
       offset="0.0982" /><stop
       id="stop4696"
       style="stop-color:#686868"
       offset="0.5326" /><stop
       id="stop4698"
       style="stop-color:#000000"
       offset="1" /></linearGradient><path
     id="path4700"
     d="m 487.13,111.882 c 0,-9.268 22.407,-16.781 50.047,-16.781 27.641,0 50.047,7.513 50.047,16.781 v 1.03 c 0,0 0,-2.118 0,-3.121 0,-1.003 0,-35.739 0,-35.739 v 0.388 c 0,-9.268 -22.406,-16.781 -50.047,-16.781 -27.64,0 -50.047,7.513 -50.047,16.781 v -0.388 c 0,0 0,34.519 0,35.728 0,1.209 0,3.132 0,3.132 z"
     stroke-miterlimit="10"
     inkscape:connector-curvature="0"
     style="fill:url(#linearGradient5457);stroke:#231f20;stroke-miterlimit:10" /><g
     id="g4702"><path
       id="path4704"
       d="m 587.021,151.283 c 0,0 0,34.738 0,35.74 0,1.002 0.354,3.121 0.354,3.121 0,9.268 -22.76,16.779 -50.4,16.779 -27.64,0 -50.399,-7.512 -50.399,-16.779 0,0 0.353,-1.924 0.353,-3.133 0,-1.209 0,-35.729 0,-35.729 0,9.268 22.407,16.781 50.047,16.781 27.638,0.001 50.045,-7.512 50.045,-16.78 z"
       stroke-miterlimit="10"
       inkscape:connector-curvature="0"
       style="fill:#ffffff;stroke:#231f20;stroke-miterlimit:10" /></g><g
     id="g4706"><path
       id="path4708"
       d="m 587.021,112.601 c 0,0 0,34.736 0,35.739 0,1.002 0.354,3.121 0.354,3.121 0,9.268 -22.76,16.779 -50.4,16.779 -27.64,0 -50.399,-7.512 -50.399,-16.779 0,0 0.353,-1.923 0.353,-3.132 0,-1.209 0,-35.728 0,-35.728 0,9.268 22.407,16.78 50.047,16.78 27.638,0 50.045,-7.512 50.045,-16.78 z"
       stroke-miterlimit="10"
       inkscape:connector-curvature="0"
       style="fill:#ffffff;stroke:#231f20;stroke-miterlimit:10" /></g><g
     id="g4710"><path
       id="path4712"
       d="m 587.021,73.628 c 0,0 0,34.737 0,35.739 0,1.002 0.354,3.12 0.354,3.12 0,9.269 -22.76,16.781 -50.4,16.781 -27.64,0 -50.399,-7.513 -50.399,-16.781 0,0 0.353,-1.922 0.353,-3.131 0,-1.209 0,-35.728 0,-35.728 0,9.268 22.407,16.78 50.047,16.78 27.638,0.001 50.045,-7.512 50.045,-16.78 z"
       stroke-miterlimit="10"
       inkscape:connector-curvature="0"
       style="fill:#ffffff;stroke:#231f20;stroke-miterlimit:10" /></g><g
     id="g4714"><polygon
       id="polygon4716"
       points="573.216,66.381 513.908,66.381 500.732,80.875 560.039,80.875 "
       stroke-miterlimit="10"
       style="fill:#ffffff;stroke:#000000;stroke-miterlimit:10" /><line
       id="line4718"
       y2="72.310997"
       x2="562.66199"
       y1="72.310997"
       x1="513.90802"
       style="fill:none;stroke:#70bf41;stroke-width:2" /></g></g><text
   y="227.6279"
   x="511.94141"
   font-size="12"
   id="text4772"
   style="font-size:12px;line-height:0%;font-family:Helvetica">repository</text>

</g><rect
   x="536.80524"
   y="209"
   width="147"
   height="17"
   id="rect4977"
   style="fill:none" /><rect
   x="2.4797697"
   y="252"
   stroke-miterlimit="10"
   width="603.78497"
   height="244"
   id="rect4811"
   style="fill:#ffffff;stroke:#000000;stroke-miterlimit:10" /><path
   id="path4817"
   d="m 593.47977,303 c 0,-8.284 -6.716,-15 -15,-15 h -385 c -8.284,0 -15,6.716 -15,15 v 167 c 0,8.284 6.716,15 15,15 h 385 c 8.284,0 15,-6.716 15,-15 z"
   stroke-miterlimit="10"
   inkscape:connector-curvature="0"
   style="fill:#b5b5b5;stroke:#ffffff;stroke-miterlimit:10" /><rect
   id="rect4819"
   height="70.268997"
   width="425"
   y="299"
   x="192.47977"
   style="fill:none" /><text
   id="text4821"
   x="192.47977"
   y="311.41989"
   style="line-height:0%"><tspan
     id="tspan4823"
     font-size="18"
     y="311.41989"
     x="192.47977"
     style="font-size:18px;font-family:Consolas">.git</tspan><tspan
     id="tspan4825"
     font-size="10.8"
     y="333.0199"
     x="192.47977"
     style="font-size:10.80000019px;font-family:Consolas" /></text>
<rect
   style="fill:none"
   x="11.47977"
   y="259"
   width="195.58501"
   height="24.448999"
   id="rect4827" /><text
   style="font-size:13.5px;line-height:0%;font-family:Helvetica"
   font-size="13.5"
   id="text4829"
   x="11.47977"
   y="268.707">https://github.com/AnthonyOfSeatttle/gapminder-analysis.git</text>
<g
   id="g5055"
   transform="translate(-4.5202304,240)"><g
   id="g5023"><linearGradient
     id="linearGradient5025"
     gradientUnits="userSpaceOnUse"
     x1="537.17682"
     y1="57.660198"
     x2="537.17682"
     y2="112.9126"><stop
       offset="0.0982"
       style="stop-color:#C4C4C4"
       id="stop5027" /><stop
       offset="0.5326"
       style="stop-color:#686868"
       id="stop5029" /><stop
       offset="1"
       style="stop-color:#000000"
       id="stop5031" /></linearGradient><path
     stroke-miterlimit="10"
     d="m 487.13,111.882 c 0,-9.268 22.407,-16.781 50.047,-16.781 27.641,0 50.047,7.513 50.047,16.781 v 1.03 c 0,0 0,-2.118 0,-3.121 0,-1.003 0,-35.739 0,-35.739 v 0.388 c 0,-9.268 -22.406,-16.781 -50.047,-16.781 -27.64,0 -50.047,7.513 -50.047,16.781 v -0.388 c 0,0 0,34.519 0,35.728 0,1.209 0,3.132 0,3.132 z"
     id="path5033"
     style="fill:url(#linearGradient5073);stroke:#231f20;stroke-miterlimit:10"
     inkscape:connector-curvature="0" /><g
     id="g5035"><path
       stroke-miterlimit="10"
       d="m 587.021,151.283 c 0,0 0,34.738 0,35.74 0,1.002 0.354,3.121 0.354,3.121 0,9.268 -22.76,16.779 -50.4,16.779 -27.64,0 -50.399,-7.512 -50.399,-16.779 0,0 0.353,-1.924 0.353,-3.133 0,-1.209 0,-35.729 0,-35.729 0,9.268 22.407,16.781 50.047,16.781 27.638,0.001 50.045,-7.512 50.045,-16.78 z"
       id="path5037"
       inkscape:connector-curvature="0"
       style="fill:#ffffff;stroke:#231f20;stroke-miterlimit:10" /></g><g
     id="g5039"><path
       stroke-miterlimit="10"
       d="m 587.021,112.601 c 0,0 0,34.736 0,35.739 0,1.002 0.354,3.121 0.354,3.121 0,9.268 -22.76,16.779 -50.4,16.779 -27.64,0 -50.399,-7.512 -50.399,-16.779 0,0 0.353,-1.923 0.353,-3.132 0,-1.209 0,-35.728 0,-35.728 0,9.268 22.407,16.78 50.047,16.78 27.638,0 50.045,-7.512 50.045,-16.78 z"
       id="path5041"
       inkscape:connector-curvature="0"
       style="fill:#ffffff;stroke:#231f20;stroke-miterlimit:10" /></g><g
     id="g5043"><path
       stroke-miterlimit="10"
       d="m 587.021,73.628 c 0,0 0,34.737 0,35.739 0,1.002 0.354,3.12 0.354,3.12 0,9.269 -22.76,16.781 -50.4,16.781 -27.64,0 -50.399,-7.513 -50.399,-16.781 0,0 0.353,-1.922 0.353,-3.131 0,-1.209 0,-35.728 0,-35.728 0,9.268 22.407,16.78 50.047,16.78 27.638,0.001 50.045,-7.512 50.045,-16.78 z"
       id="path5045"
       inkscape:connector-curvature="0"
       style="fill:#ffffff;stroke:#231f20;stroke-miterlimit:10" /></g><g
     id="g5047"><polygon
       stroke-miterlimit="10"
       points="513.908,66.381 500.732,80.875 560.039,80.875 573.216,66.381 "
       id="polygon5049"
       style="fill:#ffffff;stroke:#000000;stroke-miterlimit:10" /><line
       x1="513.90802"
       y1="72.310997"
       x2="562.66199"
       y2="72.310997"
       id="line5051"
       style="fill:none;stroke:#70bf41;stroke-width:2" /></g></g><text
   style="font-size:12px;line-height:0%;font-family:Helvetica"
   id="text5053"
   font-size="12"
   x="511.94141"
   y="227.6279">repository</text>

</g><rect
   style="fill:none"
   id="rect4762"
   height="14.000498"
   width="165.5479"
   transform="rotate(11.343641)"
   y="263.90848"
   x="194.31978" /><rect
   transform="rotate(90)"
   x="536.66107"
   y="-27.230183"
   width="122.71094"
   height="25.25041"
   id="rect5294"
   style="fill:#45beee;stroke-width:0.908333" /><rect
   style="fill:#45beee;stroke-width:0.72458118"
   id="rect5124"
   height="30.604004"
   width="52.462059"
   y="628.76801"
   x="1.9797698" /><polygon
   style="fill:#45beee"
   id="polygon5126"
   points="464.399,151.163 423.847,121.571 423.847,181.695 "
   transform="matrix(0.82506887,0,0,1,-298.05099,492)" /><text
   y="555.54626"
   x="8.2814913"
   font-size="12"
   id="text5128"
   style="font-size:16.60092735px;line-height:0%;font-family:Consolas;stroke-width:1.38341069"
   transform="scale(0.8541598,1.1707411)">git clone</text>
<rect
   x="95.026352"
   y="504"
   stroke-miterlimit="10"
   width="661.77887"
   height="244"
   id="rect10464"
   style="fill:#ffffff;stroke:#000000;stroke-width:1.04692435;stroke-miterlimit:10" /><path
   style="fill:#b5b5b5;stroke:#ffffff;stroke-width:1.11562955;stroke-miterlimit:10"
   inkscape:connector-curvature="0"
   id="path10470"
   d="m 743.96242,555.04901 c 0,-8.27914 -8.36384,-14.9912 -18.68041,-14.9912 H 245.81833 c -10.31657,0 -18.68041,6.71206 -18.68041,14.9912 v 166.90198 c 0,8.27914 8.36384,14.9912 18.68041,14.9912 h 479.46368 c 10.31657,0 18.68041,-6.71206 18.68041,-14.9912 z"
   stroke-miterlimit="10" /><rect
   style="fill:none"
   id="rect10472"
   height="70.268997"
   width="425"
   y="551"
   x="343.02023" /><rect
   x="162.02023"
   y="511"
   width="195.58501"
   height="24.448999"
   id="rect10480"
   style="fill:none" /><g
   transform="translate(80.02023,492)"
   id="g10484"><g
     id="g10486"><rect
       style="fill:#dcdee0"
       id="rect10488"
       height="128"
       width="100"
       y="85"
       x="24" /><rect
       style="fill:none;stroke:#85888d;stroke-width:2"
       id="rect10490"
       height="128"
       width="100"
       y="85"
       x="24" /><line
       style="fill:none;stroke:#000000;stroke-width:2"
       id="line10492"
       y2="105"
       x2="111"
       y1="105"
       x1="37" /><line
       style="fill:none;stroke:#000000;stroke-width:2"
       id="line10494"
       y2="111"
       x2="111"
       y1="111"
       x1="37" /><line
       style="fill:none;stroke:#000000;stroke-width:2"
       id="line10496"
       y2="117"
       x2="111"
       y1="117"
       x1="37" /><line
       style="fill:none;stroke:#70bf41;stroke-width:2"
       id="line10498"
       y2="129"
       x2="111"
       y1="129"
       x1="37" /></g></g><rect
   x="310.02023"
   y="638.06897"
   width="52.743"
   height="14"
   id="rect10500"
   style="fill:none" /><g
   transform="translate(60.02023,492)"
   id="g10502"><g
   id="g10504"><rect
     style="fill:#45beee"
     id="rect10506"
     height="30.604"
     width="45.956001"
     y="136.76801"
     x="150.871" /><polygon
     style="fill:#45beee"
     id="polygon10508"
     points="234.02,151.163 193.467,121.571 193.467,181.695 " /></g><text
   style="font-size:12px;line-height:0%;font-family:Consolas"
   id="text10510"
   font-size="12"
   x="164"
   y="154.34959">git add</text>

</g><rect
   x="523.00024"
   y="638.06897"
   width="85.542"
   height="14"
   id="rect10512"
   style="fill:none" /><g
   transform="translate(108.02023,492)"
   id="g10514"><g
   id="g10516"><rect
     style="fill:#45beee"
     id="rect10518"
     height="30.604"
     width="45.956001"
     y="136.76801"
     x="381.25101" /><polygon
     style="fill:#45beee"
     id="polygon10520"
     points="464.399,151.163 423.847,121.571 423.847,181.695 " /></g><text
   style="font-size:12px;line-height:0%;font-family:Consolas"
   id="text10522"
   font-size="12"
   x="386.7637"
   y="154.34959">git commit</text>

</g><rect
   x="375.02023"
   y="698"
   width="147"
   height="17"
   id="rect10524"
   style="fill:none" /><g
   transform="translate(70.02023,492)"
   id="g10526"><g
   id="g10528"><g
     id="g10530"><linearGradient
       id="linearGradient10532"
       gradientUnits="userSpaceOnUse"
       x1="303.49899"
       y1="123.9863"
       x2="303.49899"
       y2="179.23489"><stop
         offset="0.0982"
         style="stop-color:#C4C4C4"
         id="stop10534" /><stop
         offset="0.5326"
         style="stop-color:#686868"
         id="stop10536" /><stop
         offset="1"
         style="stop-color:#000000"
         id="stop10538" /></linearGradient><path
       style="fill:url(#linearGradient10592);stroke:#231f20;stroke-miterlimit:10"
       inkscape:connector-curvature="0"
       stroke-miterlimit="10"
       d="m 253.453,178.205 c 0,-9.264 22.404,-16.777 50.047,-16.777 27.643,0 50.045,7.514 50.045,16.777 v 1.029 c 0,0 0,-2.115 0,-3.117 0,-1.007 0,-35.745 0,-35.745 v 0.394 c 0,-9.27 -22.402,-16.78 -50.045,-16.78 -27.643,0 -50.047,7.51 -50.047,16.78 v -0.394 c 0,0 0,34.519 0,35.733 0,1.205 0,3.129 0,3.129 z"
       id="path10540" /><g
       id="g10542"><path
         style="fill:#ffffff;stroke:#231f20;stroke-miterlimit:10"
         inkscape:connector-curvature="0"
         stroke-miterlimit="10"
         d="m 353.545,140.373 c 0,0 0,34.738 0,35.745 0,1.002 0.355,3.117 0.355,3.117 0,9.27 -22.758,16.779 -50.4,16.779 -27.642,0 -50.4,-7.51 -50.4,-16.779 0,0 0.354,-1.924 0.354,-3.129 0,-1.214 0,-35.733 0,-35.733 0,9.274 22.404,16.785 50.047,16.785 27.643,0 50.044,-7.511 50.044,-16.785 z"
         id="path10544" /></g></g><g
     id="g10546"><polygon
       style="fill:#ffffff;stroke:#000000;stroke-miterlimit:10"
       stroke-miterlimit="10"
       points="328.542,149.459 341.719,134.965 282.411,134.965 269.235,149.459 "
       id="polygon10548" /><line
       style="fill:none;stroke:#70bf41;stroke-width:2"
       x1="282.41101"
       y1="140.894"
       x2="331.16501"
       y2="140.894"
       id="line10550" /></g></g><text
   style="font-size:12px;line-height:0%;font-family:Helvetica"
   id="text10552"
   font-size="12"
   x="269.47659"
   y="214.6279">staging area</text>

</g><rect
   x="610.80524"
   y="711"
   width="147"
   height="17"
   id="rect10554"
   style="fill:none" /><g
   transform="translate(146.02023,492)"
   id="g10556"><g
   id="g10558"><linearGradient
     id="linearGradient10560"
     gradientUnits="userSpaceOnUse"
     x1="537.17682"
     y1="57.660198"
     x2="537.17682"
     y2="112.9126"><stop
       offset="0.0982"
       style="stop-color:#C4C4C4"
       id="stop10562" /><stop
       offset="0.5326"
       style="stop-color:#686868"
       id="stop10564" /><stop
       offset="1"
       style="stop-color:#000000"
       id="stop10566" /></linearGradient><path
     style="fill:url(#linearGradient10594);stroke:#231f20;stroke-miterlimit:10"
     inkscape:connector-curvature="0"
     stroke-miterlimit="10"
     d="m 487.13,111.882 c 0,-9.268 22.407,-16.781 50.047,-16.781 27.641,0 50.047,7.513 50.047,16.781 v 1.03 c 0,0 0,-2.118 0,-3.121 0,-1.003 0,-35.739 0,-35.739 v 0.388 c 0,-9.268 -22.406,-16.781 -50.047,-16.781 -27.64,0 -50.047,7.513 -50.047,16.781 v -0.388 c 0,0 0,34.519 0,35.728 0,1.209 0,3.132 0,3.132 z"
     id="path10568" /><g
     id="g10570"><path
       style="fill:#ffffff;stroke:#231f20;stroke-miterlimit:10"
       inkscape:connector-curvature="0"
       stroke-miterlimit="10"
       d="m 587.021,151.283 c 0,0 0,34.738 0,35.74 0,1.002 0.354,3.121 0.354,3.121 0,9.268 -22.76,16.779 -50.4,16.779 -27.64,0 -50.399,-7.512 -50.399,-16.779 0,0 0.353,-1.924 0.353,-3.133 0,-1.209 0,-35.729 0,-35.729 0,9.268 22.407,16.781 50.047,16.781 27.638,0.001 50.045,-7.512 50.045,-16.78 z"
       id="path10572" /></g><g
     id="g10574"><path
       style="fill:#ffffff;stroke:#231f20;stroke-miterlimit:10"
       inkscape:connector-curvature="0"
       stroke-miterlimit="10"
       d="m 587.021,112.601 c 0,0 0,34.736 0,35.739 0,1.002 0.354,3.121 0.354,3.121 0,9.268 -22.76,16.779 -50.4,16.779 -27.64,0 -50.399,-7.512 -50.399,-16.779 0,0 0.353,-1.923 0.353,-3.132 0,-1.209 0,-35.728 0,-35.728 0,9.268 22.407,16.78 50.047,16.78 27.638,0 50.045,-7.512 50.045,-16.78 z"
       id="path10576" /></g><g
     id="g10578"><path
       style="fill:#ffffff;stroke:#231f20;stroke-miterlimit:10"
       inkscape:connector-curvature="0"
       stroke-miterlimit="10"
       d="m 587.021,73.628 c 0,0 0,34.737 0,35.739 0,1.002 0.354,3.12 0.354,3.12 0,9.269 -22.76,16.781 -50.4,16.781 -27.64,0 -50.399,-7.513 -50.399,-16.781 0,0 0.353,-1.922 0.353,-3.131 0,-1.209 0,-35.728 0,-35.728 0,9.268 22.407,16.78 50.047,16.78 27.638,0.001 50.045,-7.512 50.045,-16.78 z"
       id="path10580" /></g><g
     id="g10582"><polygon
       style="fill:#ffffff;stroke:#000000;stroke-miterlimit:10"
       stroke-miterlimit="10"
       points="513.908,66.381 500.732,80.875 560.039,80.875 573.216,66.381 "
       id="polygon10584" /><line
       style="fill:none;stroke:#70bf41;stroke-width:2"
       x1="513.90802"
       y1="72.310997"
       x2="562.66199"
       y2="72.310997"
       id="line10586" /></g></g><text
   style="font-size:12px;line-height:0%;font-family:Helvetica"
   id="text10588"
   font-size="12"
   x="511.94141"
   y="227.6279">repository</text>

</g><rect
   style="fill:none"
   id="rect10590"
   height="17"
   width="147"
   y="711"
   x="610.80524" /><text
   id="text4660-0"
   style="line-height:0%"
   x="234.1312"
   y="566.4873"><tspan
     x="234.1312"
     y="566.4873"
     font-size="18"
     id="tspan4662-1"
     style="font-size:18px;font-family:Consolas">.git</tspan><tspan
     x="234.1312"
     y="588.08728"
     font-size="10.8"
     id="tspan4664-9"
     style="font-size:10.80000019px;font-family:Consolas">origin https://github.com/AnthonyOfSeattle/gapminder-analysis.git</tspan></text>
<text
   style="font-size:13.5px;line-height:0%;font-family:Helvetica"
   id="text4668-2"
   font-size="13.5"
   x="109.28764"
   y="517.08179">~/gapminder-analysis</text>
</svg>